<svg width="19" height="21" viewBox="0 0 19 21" fill="none" xmlns="http://www.w3.org/2000/svg">
<path fill-rule="evenodd" clip-rule="evenodd" d="M13.951 4.12167C14.4502 4.54311 14.7915 5.09737 14.9107 5.6835C15.0439 6.3378 14.8967 7.00184 14.497 7.55078L7.68012 16.9147C7.33553 17.3883 6.81742 17.6646 6.25736 17.6726L3.62731 17.708H3.61991C3.33289 17.708 3.0837 17.4955 3.01873 17.1944L2.42331 14.4373C2.29666 13.8503 2.42167 13.2421 2.76708 12.7684L3.66185 11.5386C3.87157 11.2499 4.25974 11.1986 4.52785 11.4261C4.79595 11.6519 4.84283 12.0698 4.63229 12.3584L3.73752 13.5883C3.62402 13.7441 3.5829 13.9433 3.62485 14.1363L4.1076 16.3728L6.24174 16.3445C6.42513 16.3418 6.59537 16.2515 6.70886 16.0957L13.5258 6.7318C13.7001 6.49274 13.7602 6.23598 13.7059 5.96682C13.6475 5.68261 13.4649 5.3984 13.1902 5.16731L12.0471 4.20135C11.6046 3.82949 10.9804 3.63825 10.5544 4.22526L9.65389 5.46126L11.0832 6.6955C11.3489 6.92393 11.3916 7.34272 11.1786 7.62781C11.0569 7.79249 10.8776 7.87749 10.6967 7.87749C10.5618 7.87749 10.4253 7.82968 10.3118 7.7314L8.89317 6.50691L6.56083 9.71113C6.35029 9.99977 5.96294 10.052 5.69402 9.82358C5.42673 9.5978 5.37986 9.1799 5.58957 8.89126L9.58316 3.40539C10.3579 2.33938 11.7148 2.2349 12.8078 3.15659L13.951 4.12167ZM10.7637 16.38H16.0082C16.3487 16.38 16.625 16.6773 16.625 17.0436C16.625 17.4099 16.3487 17.7072 16.0082 17.7072H10.7637C10.4224 17.7072 10.1469 17.4099 10.1469 17.0436C10.1469 16.6773 10.4224 16.38 10.7637 16.38Z" fill="white"/>
</svg>
