<svg width="30" height="32" viewBox="0 0 30 32" fill="none" xmlns="http://www.w3.org/2000/svg">
<path fill-rule="evenodd" clip-rule="evenodd" d="M10.1714 7.81694C8.87148 8.51686 7.27701 8.50681 5.98706 7.79055L5.93025 7.73666C5.34982 7.39436 5.17178 6.67048 5.53259 6.11983C5.89339 5.56918 6.65642 5.40027 7.23684 5.74257C7.49593 5.88599 7.78909 5.96479 8.08897 5.97162C8.5486 5.98986 8.99701 5.83394 9.33535 5.53823C9.67369 5.24252 9.87419 4.83129 9.89264 4.39521C9.8839 2.20412 11.7169 0.405378 14.0255 0.339661H15.9711C18.3242 0.339661 20.2318 2.14936 20.2318 4.38174C20.228 4.66588 20.3066 4.94555 20.459 5.19015C20.6852 5.56884 21.0617 5.84599 21.5045 5.95987C21.9473 6.07376 22.4197 6.01492 22.8166 5.79646C24.8159 4.7639 27.3176 5.40472 28.4974 7.25161C28.8235 7.81523 28.623 8.52252 28.043 8.85497C27.4535 9.17421 26.7032 8.98879 26.3529 8.43729C25.8715 7.65956 24.8196 7.39502 23.9953 7.84445C22.6912 8.52195 21.109 8.50541 19.8209 7.8008C18.5327 7.09619 17.725 5.80545 17.6896 4.39521C17.705 3.95357 17.5308 3.52491 17.2068 3.20741C16.8829 2.88991 16.4369 2.71077 15.9711 2.71101H14.0255C13.5584 2.71088 13.1112 2.8896 12.785 3.20667C12.4588 3.52373 12.2813 3.95229 12.2928 4.39521C12.2796 5.81313 11.4712 7.11702 10.1714 7.81694ZM12.2928 27.0173C12.3006 27.9199 13.074 28.6477 14.0254 28.6476L14.0112 28.6746C14.4527 28.6746 14.8606 28.898 15.0813 29.2607C15.302 29.6234 15.302 30.0702 15.0813 30.4329C14.8606 30.7956 14.4527 31.019 14.0112 31.019C11.6581 31.019 9.75059 29.2093 9.75059 26.9769C9.75442 26.6928 9.67581 26.4131 9.52336 26.1685C9.04684 25.3859 7.99371 25.115 7.1658 25.5622C5.16648 26.5947 2.66476 25.9539 1.48494 24.107L0.519189 22.5037C-0.569208 20.6069 0.106258 18.2335 2.05302 17.1142C2.31105 16.9702 2.52612 16.7662 2.67792 16.5214C2.96275 16.1448 3.06511 15.6709 2.9594 15.2183C2.85369 14.7658 2.54991 14.3773 2.12403 14.15C0.177269 13.0308 -0.498197 10.6574 0.5902 8.76061C0.772315 8.50088 1.05605 8.32072 1.37858 8.26003C1.70111 8.19934 2.03584 8.26312 2.30866 8.43724C2.8476 8.78491 3.00386 9.47277 2.66372 10.0002C2.19365 10.7816 2.47967 11.7765 3.30281 12.2233C3.92125 12.5828 4.43031 13.089 4.77984 13.6919C5.86823 15.5887 5.19277 17.9621 3.246 19.0814C2.42287 19.5282 2.13684 20.5231 2.60691 21.3045L3.58686 22.9079C3.80983 23.29 4.18744 23.5692 4.63242 23.6811C5.07739 23.793 5.55123 23.7279 5.94441 23.5007C6.57839 23.1519 7.29925 22.9704 8.03213 22.9753C10.3852 22.9753 12.2928 24.785 12.2928 27.0173ZM27.9292 17.1009C27.5325 16.884 27.2433 16.5259 27.126 16.1059C27.0087 15.686 27.0729 15.2391 27.3043 14.8642C27.4561 14.6194 27.6712 14.4154 27.9292 14.2714C28.5121 13.9392 28.7025 13.2227 28.3553 12.668C28.0102 12.1206 27.2738 11.9252 26.6794 12.2234C24.7327 13.3427 24.0572 15.7161 25.1456 17.6129C25.4913 18.2755 26.0281 18.8315 26.6936 19.2162C27.0894 19.4305 27.3783 19.7862 27.4957 20.2039C27.6131 20.6216 27.5493 21.0666 27.3185 21.4394L26.3528 23.0427C26.1202 23.4179 25.7436 23.6932 25.3018 23.8107C24.8593 23.9227 24.3877 23.8595 23.9952 23.6355C22.6888 22.957 21.1038 22.9749 19.8148 23.6828C18.5258 24.3906 17.72 25.6856 17.6895 27.0983C17.7574 27.7008 18.2934 28.1577 18.9321 28.1577C19.5709 28.1577 20.1068 27.7008 20.1748 27.0983C20.1631 26.5096 20.4896 25.9614 21.0271 25.6672C21.5647 25.373 22.2283 25.3792 22.7596 25.6835C24.7589 26.7161 27.2607 26.0753 28.4405 24.2284L29.4062 22.625C30.5988 20.7116 29.9389 18.2437 27.9292 17.1009ZM14.991 10.62C12.8299 10.62 10.8819 11.8558 10.0562 13.7505C9.23046 15.6452 9.68994 17.8253 11.2201 19.2731C12.7503 20.7209 15.0495 21.151 17.0444 20.3626C19.0394 19.5742 20.3368 17.7228 20.331 15.6726C20.331 14.3302 19.768 13.043 18.7661 12.0951C17.7643 11.1472 16.406 10.6164 14.991 10.62ZM14.9913 18.3807C13.4226 18.3807 12.1509 17.1743 12.1509 15.686C12.1509 14.1978 13.4226 12.9913 14.9913 12.9913C16.5601 12.9913 17.8318 14.1978 17.8318 15.686C17.8318 17.1743 16.5601 18.3807 14.9913 18.3807Z" fill="white"/>
</svg>
